<svg width="24" height="24" viewBox="0 0 24 24" fill="none" xmlns="http://www.w3.org/2000/svg">
<path d="M12 2.25C6.624 2.25 2.25 6.624 2.25 12C2.25 17.376 6.624 21.75 12 21.75C17.376 21.75 21.75 17.376 21.75 12C21.75 6.624 17.376 2.25 12 2.25ZM12 3.75C16.5652 3.75 20.25 7.43475 20.25 12C20.25 16.5652 16.5652 20.25 12 20.25C7.43475 20.25 3.75 16.5652 3.75 12C3.75 7.43475 7.43475 3.75 12 3.75ZM10.665 6.96L9.585 8.04L13.548 12L9.5865 15.96L10.6665 17.04L15.1665 12.54L15.681 12L15.1658 11.46L10.665 6.96Z" fill="#999999"/>
</svg>
