<svg width="24" height="22" viewBox="0 0 24 22" fill="none" xmlns="http://www.w3.org/2000/svg">
<path d="M19.5 10C19.5 9.8674 19.4473 9.74022 19.3536 9.64645C19.2598 9.55269 19.1326 9.50001 19 9.50001C18.8674 9.50001 18.7402 9.55269 18.6465 9.64645C18.5527 9.74022 18.5 9.8674 18.5 10H19.5ZM5.50002 10C5.50002 9.8674 5.44734 9.74022 5.35357 9.64645C5.25981 9.55269 5.13263 9.50001 5.00002 9.50001C4.86741 9.50001 4.74024 9.55269 4.64647 9.64645C4.5527 9.74022 4.50002 9.8674 4.50002 10H5.50002ZM20.646 12.354C20.7399 12.4479 20.8672 12.5006 21 12.5006C21.1328 12.5006 21.2601 12.4479 21.354 12.354C21.4479 12.2601 21.5007 12.1328 21.5007 12C21.5007 11.8672 21.4479 11.7399 21.354 11.646L20.646 12.354ZM12 3.00001L12.354 2.64601C12.3076 2.59945 12.2524 2.5625 12.1917 2.5373C12.1309 2.51209 12.0658 2.49911 12 2.49911C11.9343 2.49911 11.8691 2.51209 11.8084 2.5373C11.7476 2.5625 11.6925 2.59945 11.646 2.64601L12 3.00001ZM2.64602 11.646C2.55213 11.7399 2.49939 11.8672 2.49939 12C2.49939 12.1328 2.55213 12.2601 2.64602 12.354C2.73991 12.4479 2.86725 12.5006 3.00002 12.5006C3.1328 12.5006 3.26013 12.4479 3.35402 12.354L2.64602 11.646ZM7.00002 21.5H17V20.5H7.00002V21.5ZM19.5 19V10H18.5V19H19.5ZM5.50002 19V10H4.50002V19H5.50002ZM21.354 11.646L12.354 2.64601L11.646 3.35401L20.646 12.354L21.354 11.646ZM11.646 2.64601L2.64602 11.646L3.35402 12.354L12.354 3.35401L11.646 2.64601ZM17 21.5C17.6631 21.5 18.2989 21.2366 18.7678 20.7678C19.2366 20.2989 19.5 19.6631 19.5 19H18.5C18.5 19.3978 18.342 19.7794 18.0607 20.0607C17.7794 20.342 17.3978 20.5 17 20.5V21.5ZM7.00002 20.5C6.6022 20.5 6.22067 20.342 5.93936 20.0607C5.65806 19.7794 5.50002 19.3978 5.50002 19H4.50002C4.50002 19.6631 4.76341 20.2989 5.23225 20.7678C5.7011 21.2366 6.33698 21.5 7.00002 21.5V20.5Z" fill="#999999"/>
</svg>
