<svg width="24" height="22" viewBox="0 0 24 22" fill="none" xmlns="http://www.w3.org/2000/svg">
<path d="M19.84 7.265L12 13.035L4.15999 7.265M3.23499 5.355C2.96977 5.355 2.71542 5.46035 2.52788 5.64789C2.34034 5.83543 2.23499 6.08978 2.23499 6.355V17.66C2.23499 17.9252 2.34034 18.1796 2.52788 18.3671C2.71542 18.5546 2.96977 18.66 3.23499 18.66H20.765C21.0302 18.66 21.2846 18.5546 21.4721 18.3671C21.6596 18.1796 21.765 17.9252 21.765 17.66V6.34C21.765 6.07478 21.6596 5.82043 21.4721 5.63289C21.2846 5.44535 21.0302 5.34 20.765 5.34H3.23499V5.355Z" stroke="#999999" stroke-width="0.5" stroke-linecap="round" stroke-linejoin="round"/>
</svg>
