<svg width="24" height="24" viewBox="0 0 24 24" fill="none" xmlns="http://www.w3.org/2000/svg">
<path d="M12 8.75C11.138 8.75 10.3114 9.09241 9.7019 9.7019C9.09241 10.3114 8.75 11.138 8.75 12C8.75 12.862 9.09241 13.6886 9.7019 14.2981C10.3114 14.9076 11.138 15.25 12 15.25C12.862 15.25 13.6886 14.9076 14.2981 14.2981C14.9076 13.6886 15.25 12.862 15.25 12C15.25 11.138 14.9076 10.3114 14.2981 9.7019C13.6886 9.09241 12.862 8.75 12 8.75Z" fill="#999999"/>
<path fill-rule="evenodd" clip-rule="evenodd" d="M12.68 2.806C12.472 2.69042 12.238 2.62976 12 2.62976C11.762 2.62976 11.528 2.69042 11.32 2.806L4.12 6.806C3.90174 6.92728 3.71989 7.10472 3.59329 7.31994C3.46669 7.53515 3.39996 7.78031 3.4 8.03V15.97C3.4 16.479 3.676 16.947 4.12 17.194L11.32 21.194C11.528 21.3096 11.762 21.3702 12 21.3702C12.238 21.3702 12.472 21.3096 12.68 21.194L19.88 17.194C20.0981 17.0728 20.2799 16.8955 20.4065 16.6805C20.533 16.4655 20.5999 16.2205 20.6 15.971V8.03C20.6 7.78031 20.5333 7.53515 20.4067 7.31994C20.2801 7.10472 20.0983 6.92728 19.88 6.806L12.68 2.806ZM7.25 12C7.25 10.7402 7.75044 9.53204 8.64124 8.64124C9.53204 7.75045 10.7402 7.25 12 7.25C13.2598 7.25 14.468 7.75045 15.3588 8.64124C16.2496 9.53204 16.75 10.7402 16.75 12C16.75 13.2598 16.2496 14.468 15.3588 15.3588C14.468 16.2496 13.2598 16.75 12 16.75C10.7402 16.75 9.53204 16.2496 8.64124 15.3588C7.75044 14.468 7.25 13.2598 7.25 12Z" fill="#999999"/>
</svg>
