<svg width="158" height="25" viewBox="0 0 158 25" fill="none" xmlns="http://www.w3.org/2000/svg">
<path d="M0.517045 1.54545H5.06818L9.875 13.2727H10.0795L14.8864 1.54545H19.4375V19H15.858V7.6392H15.7131L11.196 18.9148H8.75852L4.24148 7.59659H4.09659V19H0.517045V1.54545ZM22.4098 19V5.90909H26.0405V19H22.4098ZM24.2337 4.22159C23.6939 4.22159 23.2308 4.04261 22.8445 3.68466C22.4638 3.32102 22.2734 2.88636 22.2734 2.38068C22.2734 1.88068 22.4638 1.4517 22.8445 1.09375C23.2308 0.730113 23.6939 0.548295 24.2337 0.548295C24.7734 0.548295 25.2337 0.730113 25.6143 1.09375C26.0007 1.4517 26.1939 1.88068 26.1939 2.38068C26.1939 2.88636 26.0007 3.32102 25.6143 3.68466C25.2337 4.04261 24.7734 4.22159 24.2337 4.22159ZM28.9489 19V5.90909H32.4091V8.21875H32.5625C32.8352 7.4517 33.2898 6.84659 33.9261 6.40341C34.5625 5.96023 35.3239 5.73864 36.2102 5.73864C37.108 5.73864 37.8722 5.96307 38.5028 6.41193C39.1335 6.85511 39.554 7.45739 39.7642 8.21875H39.9006C40.1676 7.46875 40.6506 6.86932 41.3494 6.42045C42.054 5.96591 42.8864 5.73864 43.8466 5.73864C45.0682 5.73864 46.0597 6.12784 46.821 6.90625C47.5881 7.67898 47.9716 8.77557 47.9716 10.196V19H44.3494V10.9119C44.3494 10.1847 44.1563 9.6392 43.7699 9.27557C43.3835 8.91193 42.9006 8.73011 42.321 8.73011C41.6619 8.73011 41.1477 8.94034 40.7784 9.3608C40.4091 9.77557 40.2244 10.3239 40.2244 11.0057V19H36.7045V10.8352C36.7045 10.1932 36.5199 9.68182 36.1506 9.30114C35.7869 8.92045 35.3068 8.73011 34.7102 8.73011C34.3068 8.73011 33.9432 8.83239 33.6193 9.03693C33.3011 9.2358 33.0483 9.51705 32.8608 9.88068C32.6733 10.2386 32.5795 10.6591 32.5795 11.142V19H28.9489ZM54.5724 19.2472C53.7372 19.2472 52.9929 19.1023 52.3395 18.8125C51.6861 18.517 51.169 18.0824 50.7884 17.5085C50.4134 16.929 50.2259 16.2074 50.2259 15.3438C50.2259 14.6165 50.3594 14.0057 50.6264 13.5114C50.8935 13.017 51.2571 12.6193 51.7173 12.3182C52.1776 12.017 52.7003 11.7898 53.2855 11.6364C53.8764 11.483 54.4957 11.375 55.1435 11.3125C55.9048 11.233 56.5185 11.1591 56.9844 11.0909C57.4503 11.017 57.7884 10.9091 57.9986 10.767C58.2088 10.625 58.3139 10.4148 58.3139 10.1364V10.0852C58.3139 9.54545 58.1435 9.12784 57.8026 8.83239C57.4673 8.53693 56.9901 8.3892 56.3707 8.3892C55.7173 8.3892 55.1974 8.53409 54.8111 8.82386C54.4247 9.10795 54.169 9.46591 54.044 9.89773L50.6861 9.625C50.8565 8.82955 51.1918 8.14205 51.6918 7.5625C52.1918 6.97727 52.8366 6.52841 53.6264 6.21591C54.4219 5.89773 55.3423 5.73864 56.3878 5.73864C57.1151 5.73864 57.8111 5.82386 58.4759 5.99432C59.1463 6.16477 59.7401 6.42898 60.2571 6.78693C60.7798 7.14489 61.1918 7.60511 61.4929 8.16761C61.794 8.72443 61.9446 9.39205 61.9446 10.1705V19H58.5014V17.1847H58.3991C58.1889 17.5938 57.9077 17.9545 57.5554 18.267C57.2031 18.5739 56.7798 18.8153 56.2855 18.9915C55.7912 19.1619 55.2202 19.2472 54.5724 19.2472ZM55.6122 16.7415C56.1463 16.7415 56.6179 16.6364 57.027 16.4261C57.4361 16.2102 57.7571 15.9205 57.9901 15.5568C58.223 15.1932 58.3395 14.7812 58.3395 14.321V12.9318C58.2259 13.0057 58.0696 13.0739 57.8707 13.1364C57.6776 13.1932 57.4588 13.2472 57.2145 13.2983C56.9702 13.3437 56.7259 13.3864 56.4815 13.4261C56.2372 13.4602 56.0156 13.4915 55.8168 13.5199C55.3906 13.5824 55.0185 13.6818 54.7003 13.8182C54.3821 13.9545 54.1349 14.1392 53.9588 14.3722C53.7827 14.5994 53.6946 14.8835 53.6946 15.2244C53.6946 15.7188 53.8736 16.0966 54.2315 16.358C54.5952 16.6136 55.0554 16.7415 55.6122 16.7415Z" fill="#343A5A"/>
<path d="M64.8295 19V1.54545H71.8182C73.1023 1.54545 74.1733 1.7358 75.0312 2.11648C75.8892 2.49716 76.5341 3.02557 76.9659 3.7017C77.3977 4.37216 77.6136 5.14489 77.6136 6.01989C77.6136 6.7017 77.4773 7.30114 77.2045 7.81818C76.9318 8.32955 76.5568 8.75 76.0795 9.07955C75.608 9.40341 75.0682 9.63352 74.4602 9.76989V9.94034C75.125 9.96875 75.7472 10.1562 76.3267 10.5028C76.9119 10.8494 77.3864 11.3352 77.75 11.9602C78.1136 12.5795 78.2955 13.3182 78.2955 14.1761C78.2955 15.1023 78.0653 15.929 77.6051 16.6562C77.1506 17.3778 76.4773 17.9489 75.5852 18.3693C74.6932 18.7898 73.5938 19 72.2869 19H64.8295ZM68.5199 15.983H71.5284C72.5568 15.983 73.3068 15.7869 73.7784 15.3949C74.25 14.9972 74.4858 14.4687 74.4858 13.8097C74.4858 13.3267 74.3693 12.9006 74.1364 12.5312C73.9034 12.1619 73.571 11.8722 73.1392 11.6619C72.7131 11.4517 72.2045 11.3466 71.6136 11.3466H68.5199V15.983ZM68.5199 8.84943H71.2557C71.7614 8.84943 72.2102 8.76136 72.6023 8.58523C73 8.40341 73.3125 8.14773 73.5398 7.81818C73.7727 7.48864 73.8892 7.09375 73.8892 6.63352C73.8892 6.00284 73.6648 5.49432 73.2159 5.10795C72.7727 4.72159 72.142 4.52841 71.3239 4.52841H68.5199V8.84943ZM86.5433 19.2557C85.2195 19.2557 84.0746 18.9744 83.1087 18.4119C82.1484 17.8437 81.407 17.054 80.8842 16.0426C80.3615 15.0256 80.1001 13.8466 80.1001 12.5057C80.1001 11.1534 80.3615 9.97159 80.8842 8.96023C81.407 7.94318 82.1484 7.15341 83.1087 6.59091C84.0746 6.02273 85.2195 5.73864 86.5433 5.73864C87.8672 5.73864 89.0092 6.02273 89.9695 6.59091C90.9354 7.15341 91.6797 7.94318 92.2024 8.96023C92.7251 9.97159 92.9865 11.1534 92.9865 12.5057C92.9865 13.8466 92.7251 15.0256 92.2024 16.0426C91.6797 17.054 90.9354 17.8437 89.9695 18.4119C89.0092 18.9744 87.8672 19.2557 86.5433 19.2557ZM86.5604 16.4432C87.1626 16.4432 87.6655 16.2727 88.0689 15.9318C88.4723 15.5852 88.7763 15.1136 88.9808 14.517C89.1911 13.9205 89.2962 13.2415 89.2962 12.4801C89.2962 11.7188 89.1911 11.0398 88.9808 10.4432C88.7763 9.84659 88.4723 9.375 88.0689 9.02841C87.6655 8.68182 87.1626 8.50852 86.5604 8.50852C85.9524 8.50852 85.4411 8.68182 85.0263 9.02841C84.6172 9.375 84.3075 9.84659 84.0973 10.4432C83.8928 11.0398 83.7905 11.7188 83.7905 12.4801C83.7905 13.2415 83.8928 13.9205 84.0973 14.517C84.3075 15.1136 84.6172 15.5852 85.0263 15.9318C85.4411 16.2727 85.9524 16.4432 86.5604 16.4432ZM101.262 19.2557C99.9382 19.2557 98.7933 18.9744 97.8274 18.4119C96.8672 17.8437 96.1257 17.054 95.603 16.0426C95.0803 15.0256 94.8189 13.8466 94.8189 12.5057C94.8189 11.1534 95.0803 9.97159 95.603 8.96023C96.1257 7.94318 96.8672 7.15341 97.8274 6.59091C98.7933 6.02273 99.9382 5.73864 101.262 5.73864C102.586 5.73864 103.728 6.02273 104.688 6.59091C105.654 7.15341 106.398 7.94318 106.921 8.96023C107.444 9.97159 107.705 11.1534 107.705 12.5057C107.705 13.8466 107.444 15.0256 106.921 16.0426C106.398 17.054 105.654 17.8437 104.688 18.4119C103.728 18.9744 102.586 19.2557 101.262 19.2557ZM101.279 16.4432C101.881 16.4432 102.384 16.2727 102.788 15.9318C103.191 15.5852 103.495 15.1136 103.7 14.517C103.91 13.9205 104.015 13.2415 104.015 12.4801C104.015 11.7188 103.91 11.0398 103.7 10.4432C103.495 9.84659 103.191 9.375 102.788 9.02841C102.384 8.68182 101.881 8.50852 101.279 8.50852C100.671 8.50852 100.16 8.68182 99.745 9.02841C99.3359 9.375 99.0263 9.84659 98.8161 10.4432C98.6115 11.0398 98.5092 11.7188 98.5092 12.4801C98.5092 13.2415 98.6115 13.9205 98.8161 14.517C99.0263 15.1136 99.3359 15.5852 99.745 15.9318C100.16 16.2727 100.671 16.4432 101.279 16.4432ZM113.356 15.233L113.364 10.8778H113.893L118.086 5.90909H122.254L116.62 12.4886H115.759L113.356 15.233ZM110.066 19V1.54545H113.697V19H110.066ZM118.248 19L114.396 13.2983L116.816 10.733L122.501 19H118.248ZM124.035 19V5.90909H127.665V19H124.035ZM125.859 4.22159C125.319 4.22159 124.856 4.04261 124.469 3.68466C124.089 3.32102 123.898 2.88636 123.898 2.38068C123.898 1.88068 124.089 1.4517 124.469 1.09375C124.856 0.730113 125.319 0.548295 125.859 0.548295C126.398 0.548295 126.859 0.730113 127.239 1.09375C127.626 1.4517 127.819 1.88068 127.819 2.38068C127.819 2.88636 127.626 3.32102 127.239 3.68466C126.859 4.04261 126.398 4.22159 125.859 4.22159ZM134.205 11.4318V19H130.574V5.90909H134.034V8.21875H134.188C134.477 7.45739 134.963 6.85511 135.645 6.41193C136.327 5.96307 137.153 5.73864 138.125 5.73864C139.034 5.73864 139.827 5.9375 140.503 6.33523C141.179 6.73295 141.705 7.30114 142.08 8.03977C142.455 8.77273 142.642 9.64773 142.642 10.6648V19H139.011V11.3125C139.017 10.5114 138.813 9.88636 138.398 9.4375C137.983 8.98295 137.412 8.75568 136.685 8.75568C136.196 8.75568 135.764 8.8608 135.389 9.07102C135.02 9.28125 134.73 9.58807 134.52 9.99148C134.315 10.3892 134.21 10.8693 134.205 11.4318ZM151.401 24.1818C150.225 24.1818 149.217 24.0199 148.376 23.696C147.54 23.3778 146.876 22.9432 146.381 22.392C145.887 21.8409 145.566 21.2216 145.418 20.5341L148.776 20.0824C148.879 20.3438 149.04 20.5881 149.262 20.8153C149.484 21.0426 149.776 21.2244 150.14 21.3608C150.509 21.5028 150.958 21.5739 151.487 21.5739C152.276 21.5739 152.927 21.3807 153.438 20.9943C153.955 20.6136 154.214 19.9744 154.214 19.0767V16.6818H154.06C153.901 17.0455 153.663 17.3892 153.344 17.7131C153.026 18.0369 152.617 18.3011 152.117 18.5057C151.617 18.7102 151.021 18.8125 150.327 18.8125C149.344 18.8125 148.45 18.5852 147.643 18.1307C146.842 17.6705 146.202 16.9687 145.725 16.0256C145.254 15.0767 145.018 13.8778 145.018 12.429C145.018 10.946 145.259 9.70739 145.742 8.71307C146.225 7.71875 146.867 6.97443 147.668 6.48011C148.475 5.9858 149.359 5.73864 150.319 5.73864C151.052 5.73864 151.665 5.86364 152.16 6.11364C152.654 6.35795 153.052 6.66477 153.353 7.03409C153.66 7.39773 153.896 7.75568 154.06 8.10795H154.197V5.90909H157.802V19.1278C157.802 20.2415 157.529 21.1733 156.984 21.9233C156.438 22.6733 155.683 23.2358 154.717 23.6108C153.756 23.9915 152.651 24.1818 151.401 24.1818ZM151.478 16.0852C152.063 16.0852 152.558 15.9403 152.961 15.6506C153.37 15.3551 153.683 14.9347 153.898 14.3892C154.12 13.8381 154.231 13.179 154.231 12.4119C154.231 11.6449 154.123 10.9801 153.907 10.4176C153.691 9.84943 153.379 9.40909 152.969 9.09659C152.56 8.78409 152.063 8.62784 151.478 8.62784C150.881 8.62784 150.379 8.78977 149.969 9.11364C149.56 9.43182 149.251 9.875 149.04 10.4432C148.83 11.0114 148.725 11.6676 148.725 12.4119C148.725 13.1676 148.83 13.821 149.04 14.3722C149.256 14.9176 149.566 15.3409 149.969 15.642C150.379 15.9375 150.881 16.0852 151.478 16.0852Z" fill="black"/>
</svg>
